<svg width="360" height="90" viewBox="0 0 360 90" fill="none" xmlns="http://www.w3.org/2000/svg">
  <defs>
    <linearGradient id="orangeGrad" x1="0" y1="0" x2="1" y2="1">
      <stop offset="0%" stop-color="#f7941d"/>
      <stop offset="100%" stop-color="#ff8c00"/>
    </linearGradient>
    <linearGradient id="blueGrad" x1="0" y1="0" x2="1" y2="1">
      <stop offset="0%" stop-color="#1f6db9"/>
      <stop offset="100%" stop-color="#2ea5e0"/>
    </linearGradient>
  </defs>
  <g transform="translate(10, 10)">
    <circle cx="24" cy="24" r="22" fill="url(#blueGrad)" opacity="0.95" />
    <path d="M24 2C13.5 2 4.4 8.4 1.2 17.6C-2 26.8 1.4 36.6 7.8 43.9C14.3 51.2 23.7 55.8 33.5 55.8C43.3 55.8 52.7 51.2 59.2 43.9C65.6 36.6 69 26.8 65.8 17.6C62.6 8.4 53.5 2 43 2H24Z" fill="white" opacity="0.2" />
    <path d="M6 24C6 15.7 11.8 8.9 20 7.5" stroke="white" stroke-width="2" stroke-linecap="round" />
    <path d="M13 43C20 45 27 43 33.5 38" stroke="white" stroke-width="2" stroke-linecap="round" />
    <path d="M24 2V46" stroke="white" stroke-width="2" stroke-linecap="round" />
    <path d="M7 22H41" stroke="white" stroke-width="2" stroke-linecap="round" />
    <path d="M18 9C21 16 24 25 24 34" stroke="white" stroke-width="2" stroke-linecap="round" />
    <path d="M25 20C28 13 36 10 43 10" stroke="white" stroke-width="2" stroke-linecap="round" />
    <path d="M47 16L72 4L67 22L85 18L47 16Z" fill="#f7941d" />
    <path d="M42 23C55 20 74 16 94 11" stroke="#f7941d" stroke-width="4" stroke-linecap="round" />
  </g>
  <g transform="translate(80, 20)">
    <text x="0" y="22" fill="url(#orangeGrad)" font-family="Segoe UI, sans-serif" font-size="32" font-weight="700">travel</text>
    <text x="0" y="58" fill="#f7941d" font-family="Segoe UI, sans-serif" font-size="32" font-weight="700">mithra</text>
    <text x="0" y="84" fill="#1f6db9" font-family="Segoe UI, sans-serif" font-size="10">ALWAYS YOUR TRAVEL FRIEND</text>
  </g>
</svg>
